<svg width="48" height="48" viewBox="0 0 48 48" fill="none" xmlns="http://www.w3.org/2000/svg">
<rect width="48" height="48" rx="24" fill="#C0A091"/>
<path fill-rule="evenodd" clip-rule="evenodd" d="M36 14C37.1046 14 38 14.8954 38 16L38 22C38 23.1046 37.1046 24 36 24C34.8954 24 34 23.1046 34 22L34 16C34 14.8954 34.8954 14 36 14Z" fill="#4F3422"/>
<path fill-rule="evenodd" clip-rule="evenodd" d="M12 14C13.1046 14 14 14.8954 14 16L14 22C14 23.1046 13.1046 24 12 24C10.8954 24 10 23.1046 10 22L10 16C10 14.8954 10.8954 14 12 14Z" fill="#4F3422"/>
<path fill-rule="evenodd" clip-rule="evenodd" d="M10 32C10 30.8954 10.8954 30 12 30H36C37.1046 30 38 30.8954 38 32C38 33.1046 37.1046 34 36 34H12C10.8954 34 10 33.1046 10 32Z" fill="#4F3422"/>
</svg>
