<svg width="48" height="48" viewBox="0 0 48 48" fill="none" xmlns="http://www.w3.org/2000/svg">
<rect width="48" height="48" rx="24" fill="#ED7E1C"/>
<path fill-rule="evenodd" clip-rule="evenodd" d="M16.6945 28.4798C18.7902 26.8716 21.358 26 23.9996 26C26.6412 26 29.209 26.8717 31.3047 28.4798C33.4005 30.0879 34.907 32.3426 35.5907 34.8942C35.8766 35.9611 35.2434 37.0578 34.1765 37.3437C33.1096 37.6295 32.0129 36.9964 31.727 35.9295C31.2712 34.2284 30.2668 32.7252 28.8697 31.6532C27.4725 30.5811 25.7607 30 23.9996 30C22.2385 30 20.5267 30.5811 19.1295 31.6532C17.7324 32.7252 16.728 34.2284 16.2722 35.9294C15.9863 36.9964 14.8896 37.6295 13.8227 37.3437C12.7558 37.0578 12.1226 35.9611 12.4085 34.8942C13.0922 32.3426 14.5987 30.0879 16.6945 28.4798Z" fill="#663600"/>
<path fill-rule="evenodd" clip-rule="evenodd" d="M12 14C13.1046 14 14 14.8954 14 16V22C14 23.1046 13.1046 24 12 24C10.8954 24 10 23.1046 10 22V16C10 14.8954 10.8954 14 12 14Z" fill="#663600"/>
<path fill-rule="evenodd" clip-rule="evenodd" d="M36 14C37.1046 14 38 14.8954 38 16V22C38 23.1046 37.1046 24 36 24C34.8954 24 34 23.1046 34 22V16C34 14.8954 34.8954 14 36 14Z" fill="#663600"/>
</svg>
