<svg width="375" height="554" viewBox="0 0 375 554" fill="none" xmlns="http://www.w3.org/2000/svg">
<path d="M-17.7751 148.567C-23.7055 146.128 -27.2316 138.922 -25.6021 132.664C-23.9459 126.406 -17.3209 121.963 -10.9899 122.857C-7.73081 123.318 -4.79233 124.97 -1.93399 126.596C1.69904 128.654 5.33207 130.741 8.96511 132.799C-0.0907589 129.576 -4.47176 118.251 -2.49497 108.715C-1.05244 101.861 3.56899 95.3052 10.2474 93.5171C15.6969 92.0542 21.4937 93.8964 26.4891 96.5243C42.0097 104.597 52.882 119.471 62.1249 134.479C59.2398 130.442 62.4455 124.239 67.1203 122.613C71.7952 121.015 76.9242 122.694 81.3319 124.916C91.1624 129.901 99.3367 139.437 105 149L-17.7751 148.567Z" fill="white"/>
<path d="M382.452 173.45C390.057 170.359 394.58 161.223 392.49 153.288C390.366 145.354 381.87 139.721 373.75 140.854C369.571 141.438 365.802 143.533 362.137 145.594C357.478 148.205 352.818 150.85 348.159 153.46C359.773 149.373 365.391 135.015 362.856 122.925C361.006 114.235 355.079 105.923 346.515 103.656C339.526 101.801 332.092 104.137 325.686 107.468C305.781 117.704 291.838 136.561 279.985 155.59C283.685 150.472 279.574 142.606 273.579 140.545C267.583 138.519 261.006 140.648 255.353 143.465C242.746 149.785 232.263 161.875 225 174L382.452 173.45Z" fill="white"/>
<path d="M-34.0657 390.211C-41.2164 387.326 -45.5027 378.713 -43.5119 371.258C-41.5211 363.802 -33.4969 358.5 -25.8587 359.557C-21.9381 360.105 -18.3627 362.076 -14.9093 364.026C-10.5214 366.484 -6.1335 368.942 -1.74561 371.4C-12.6747 367.54 -17.9768 354.072 -15.5797 342.716C-13.853 334.55 -8.2462 326.749 -0.181405 324.616C6.40044 322.869 13.3886 325.083 19.4626 328.191C38.2127 337.82 51.3561 355.514 62.5086 373.391C59.0146 368.576 62.8946 361.182 68.542 359.272C74.1691 357.363 80.3853 359.353 85.7076 362.015C97.5712 367.967 107.464 379.302 114.29 390.698L-34.0657 390.211Z" fill="white"/>
<path d="M462.436 337.232C473.639 332.691 480.354 319.132 477.235 307.395C474.116 295.659 461.544 287.312 449.577 288.975C443.435 289.838 437.833 292.94 432.422 296.01C425.548 299.88 418.673 303.75 411.798 307.619C428.921 301.543 437.228 280.34 433.473 262.464C430.767 249.608 421.983 237.327 409.347 233.97C399.035 231.219 388.087 234.705 378.57 239.598C349.194 254.756 328.601 282.611 311.128 310.753C316.602 303.174 310.523 291.533 301.675 288.527C292.859 285.521 283.12 288.655 274.781 292.844C256.194 302.215 240.694 320.059 230 338L462.436 337.232Z" fill="white"/>
<path d="M217.008 153.957C219.436 162.582 229.3 166.669 237.11 162.281C247.124 156.64 259.216 164.964 257.588 176.346C256.312 185.222 263.647 192.969 272.559 192.116C284 191.038 291.66 203.574 285.552 213.302C280.77 220.898 284.35 230.952 292.837 233.81C303.702 237.496 305.654 252.062 296.091 258.456C288.656 263.445 287.83 274.075 294.414 280.168C302.85 287.965 298.695 302.055 287.379 304.011C278.567 305.54 273.485 314.917 277.015 323.165C281.571 333.721 272.033 344.903 260.918 342.095C252.231 339.888 243.795 346.407 243.669 355.357C243.544 366.865 230.301 373.208 221.264 366.088C214.229 360.547 203.865 363.054 200.135 371.203C195.353 381.657 180.658 382.059 175.301 371.88C171.12 363.957 160.631 362.001 153.921 367.943C145.31 375.54 131.741 369.924 130.965 358.441C130.364 349.491 121.577 343.448 113.04 346.131C102.075 349.566 91.9616 338.885 95.942 328.105C99.0463 319.681 93.4636 310.58 84.5514 309.552C73.1608 308.223 68.2291 294.358 76.24 286.11C82.4736 279.691 81.0717 269.086 73.3861 264.523C63.5226 258.656 64.6492 243.989 75.3138 239.727C83.6252 236.393 86.6543 226.163 81.4722 218.843C74.8381 209.466 81.8227 196.529 93.2884 196.98C102.226 197.331 109.16 189.208 107.383 180.408C105.13 169.126 116.771 160.175 127.06 165.239C135.096 169.201 144.709 164.588 146.687 155.838C149.215 144.631 163.485 141.171 170.82 149.996C176.552 156.891 187.217 156.59 192.549 149.394C199.434 140.218 213.879 142.901 217.008 153.957Z" fill="#4F3422"/>
<path d="M358.203 424.532C348.815 391.638 319.9 368.171 285.828 365.764C207.847 360.223 74.6892 358.218 46.4255 388.454C56.0386 380.381 37.1878 398.332 46.4255 388.454C3.19126 424.732 -3.54297 512.734 -3.54297 512.734L97.4454 512.032L378.706 512.834C380.258 504.811 368.617 461.086 358.203 424.532Z" fill="#0BAEB5"/>
<path d="M226.674 329.234L219.714 307.071C225.547 308.45 231.956 306.996 236.687 302.608C244.273 295.588 244.748 283.754 237.739 276.158C230.729 268.561 218.913 268.085 211.328 275.105C210.877 275.531 210.451 275.957 210.051 276.408L201.84 250.284C200.813 247.05 197.609 245.044 194.254 245.545C177.631 248.027 131.218 259.686 127.838 312.336C127.588 316.322 130.717 319.732 134.723 319.732L155.201 319.707L153.574 333.948C178.257 338.686 202.841 336.104 226.674 329.234Z" fill="#D9FBFB"/>
<path d="M226.672 329.234C202.864 336.129 178.256 338.686 153.597 333.948L148.74 376.494C146.287 397.931 158.754 418.64 179.157 425.585C180.108 425.91 181.084 426.211 182.061 426.512C217.409 436.791 249.779 402.769 238.713 367.594L226.672 329.234Z" fill="#0BAEB5"/>
<path d="M163.26 261.793C153.146 267.033 143.007 272.248 132.894 277.488C131.567 278.165 131.442 280.096 132.418 281.099C135.422 284.157 138.401 287.191 141.405 290.25C143.483 292.356 146.713 289.122 144.635 287.015C141.631 283.957 138.651 280.923 135.647 277.864C135.497 279.068 135.347 280.271 135.172 281.475C145.286 276.235 155.424 271.02 165.538 265.78C168.192 264.401 165.864 260.44 163.26 261.793Z" fill="#4F3422"/>
<path d="M160.382 297.294C160.657 299.65 157.904 301.807 155.751 300.478C153.222 298.948 150.919 302.91 153.447 304.439C158.329 307.423 165.639 303.16 164.988 297.294C164.838 296.065 164.037 295.012 162.685 295.012C161.559 294.987 160.257 296.04 160.382 297.294Z" fill="#4F3422"/>
<path d="M227.524 284.43C223.593 285.759 219.663 287.088 215.733 288.416C212.954 289.369 214.155 293.782 216.959 292.829C220.89 291.5 224.82 290.171 228.75 288.843C231.529 287.915 230.328 283.477 227.524 284.43Z" fill="#4F3422"/>
<path d="M172.2 275.504C176.581 285.407 190.25 287.94 198.286 281.07C200.539 279.139 197.285 275.905 195.057 277.836C189.049 282.975 179.285 280.217 176.181 273.197C174.979 270.49 171.024 272.821 172.2 275.504Z" fill="#4F3422"/>
<path d="M175.954 277.335C174.276 279.04 172.574 280.72 170.897 282.425C168.819 284.506 172.048 287.765 174.126 285.659C175.803 283.954 177.506 282.274 179.183 280.569C181.286 278.488 178.057 275.254 175.954 277.335Z" fill="#4F3422"/>
<path d="M183.188 283.956C183.213 285.66 183.238 287.34 183.263 289.045C183.288 292.004 187.894 292.004 187.844 289.045C187.819 287.34 187.794 285.66 187.769 283.956C187.719 281.022 183.138 280.997 183.188 283.956Z" fill="#4F3422"/>
<path d="M192.2 283.906C192.751 285.411 193.277 286.94 193.827 288.444C194.253 289.597 195.38 290.4 196.656 290.049C197.783 289.748 198.684 288.394 198.259 287.216C197.708 285.711 197.182 284.182 196.631 282.678C196.206 281.499 195.079 280.722 193.802 281.073C192.676 281.399 191.8 282.753 192.2 283.906Z" fill="#4F3422"/>
<path d="M207.973 452.336C207.973 456.724 204.418 460.309 200.012 460.309C195.631 460.309 192.051 456.749 192.051 452.336C192.051 447.949 195.606 444.363 200.012 444.363C204.418 444.363 207.973 447.923 207.973 452.336Z" fill="#4F3422"/>
<path d="M92.7646 427.167C67.2546 440.279 41.7447 453.392 16.2097 466.504C10.3517 469.513 4.49365 472.521 -1.36438 475.53C-10.9775 480.494 -18.7882 487.038 -23.019 497.317C-26.7742 506.418 -27.2248 518.979 -22.969 528.055C-18.5629 537.457 -11.278 546.081 -1.2392 549.742C8.29886 553.202 20.065 554.505 29.4528 549.692C45.4498 541.468 61.4717 533.245 77.4686 524.996C100.475 513.162 123.482 501.354 146.488 489.52C133.32 466.354 120.252 443.112 107.91 419.395C102.853 422.002 97.7965 424.584 92.7646 427.167Z" fill="#08B4BD"/>
<path d="M171.574 476.631C181.187 471.692 188.998 465.148 193.229 454.869C196.984 445.768 197.434 433.207 193.179 424.131C188.773 414.729 181.488 406.105 171.449 402.444C161.911 398.984 170.247 385.22 160.859 390.059C149.894 395.7 118.852 413.777 107.887 419.393C120.229 443.135 133.272 466.377 146.465 489.518C148.968 488.239 151.496 486.935 154 485.657C159.858 482.648 165.716 479.64 171.574 476.631Z" fill="#D9FBFB"/>
<path d="M175.878 420.568C178.907 400.235 181.936 379.877 184.966 359.544C185.842 353.627 181.586 347.109 175.427 346.432C169.294 345.755 163.286 349.641 162.335 355.984C159.305 376.317 156.276 396.675 153.247 417.008C152.371 422.925 156.627 429.444 162.785 430.121C168.919 430.823 174.927 426.911 175.878 420.568Z" fill="#D9FBFB"/>
<path d="M176.981 420.869C179.26 405.501 181.563 390.107 183.841 374.738C185.193 365.612 190.049 351.221 178.759 346.181C174.778 344.401 169.872 345.128 166.342 347.585C161.961 350.619 161.285 355.182 160.559 360.146C158.281 375.54 155.978 390.909 153.7 406.303C153.474 407.757 155.702 408.359 155.903 406.905C157.755 394.494 159.583 382.084 161.435 369.673C161.886 366.69 162.311 363.706 162.762 360.748C163.163 358.065 163.263 355.132 164.64 352.7C167.468 347.736 174.578 345.855 179.335 349.115C185.017 353.026 183.866 359.269 182.99 365.16C182.113 371.102 181.212 377.069 180.336 383.011C178.484 395.422 176.656 407.807 174.803 420.218C174.553 421.722 176.756 422.324 176.981 420.869Z" fill="#4F3422"/>
<path d="M181.36 459.153C186.542 425.983 191.725 392.789 196.907 359.619C197.833 353.702 193.627 347.158 187.444 346.431C181.31 345.704 175.277 349.565 174.276 355.908C169.094 389.078 163.911 422.273 158.729 455.443C157.803 461.359 162.009 467.903 168.192 468.63C174.326 469.357 180.359 465.496 181.36 459.153Z" fill="#D9FBFB"/>
<path d="M188.272 426.386C190.175 413.549 192.103 400.713 194.005 387.901C194.956 381.483 195.908 375.065 196.859 368.646C197.535 364.033 199.162 358.843 197.785 354.205C195.632 346.934 187.997 343.324 181.037 346.107C177.533 347.511 174.754 350.419 173.677 354.055C171.95 359.896 171.7 366.565 170.798 372.608C168.62 387.174 166.467 401.716 164.289 416.282C164.064 417.736 166.292 418.338 166.492 416.884C168.545 403.07 170.598 389.255 172.651 375.441C173.602 369.047 174.228 362.529 175.505 356.186C176.731 350.093 182.965 345.756 189.174 347.862C196.609 350.394 196.108 358.066 195.157 364.309C194.155 370.978 193.179 377.647 192.178 384.291C190.125 398.105 188.072 411.92 186.019 425.759C185.844 427.213 188.047 427.84 188.272 426.386Z" fill="#4F3422"/>
<path d="M182.639 367.918C178.959 392.638 175.279 417.359 171.599 442.079C170.722 447.996 174.978 454.515 181.137 455.192C187.27 455.869 193.278 451.983 194.23 445.639C197.91 420.919 201.59 396.198 205.27 371.478C206.146 365.561 201.89 359.042 195.732 358.365C189.598 357.688 183.59 361.574 182.639 367.918Z" fill="#D9FBFB"/>
<path d="M193.403 458.953C197.484 431.6 201.539 404.247 205.62 376.894C206.396 371.754 207.322 366.941 204.143 362.378C201.239 358.216 196.357 356.386 191.401 357.464C179.835 359.971 180.561 374.136 179.184 383.413C177.131 397.277 175.053 411.142 173 425.032C172.775 426.486 175.003 427.087 175.203 425.633C176.73 415.304 178.283 404.974 179.81 394.645C180.636 389.004 181.487 383.363 182.313 377.747C182.989 373.184 182.864 366.84 185.993 363.205C190.7 357.765 199.437 358.391 202.916 364.81C205.645 369.874 203.292 376.869 202.491 382.234C200.663 394.519 198.836 406.83 197.008 419.115C195.056 432.177 193.128 445.264 191.175 458.327C190.975 459.781 193.178 460.408 193.403 458.953Z" fill="#4F3422"/>
<path d="M293.239 428.344C318.749 441.457 344.259 454.569 369.794 467.681C375.652 470.69 381.51 473.699 387.368 476.707C396.981 481.646 404.792 488.19 409.023 498.469C412.778 507.57 413.229 520.131 408.973 529.207C404.567 538.609 397.282 547.259 387.243 550.894C377.705 554.354 365.939 555.658 356.551 550.844C340.554 542.62 324.532 534.397 308.535 526.148C285.529 514.315 262.522 502.506 239.516 490.672C252.684 467.506 265.752 444.265 278.093 420.547C283.15 423.154 288.207 425.762 293.239 428.344Z" fill="#08B4BD"/>
<path d="M214.433 477.783C204.819 472.844 197.009 466.301 192.778 456.021C189.023 446.92 188.572 434.359 192.828 425.283C197.234 415.882 204.519 407.232 214.558 403.597C224.096 400.137 215.759 386.372 225.147 391.211C236.112 396.852 267.155 414.929 278.12 420.57C265.778 444.313 252.735 467.554 239.542 490.695C237.038 489.417 234.51 488.113 232.007 486.834C226.149 483.826 220.291 480.817 214.433 477.783Z" fill="#D9FBFB"/>
<path d="M210.124 421.748C207.094 401.415 204.065 381.057 201.036 360.724C200.16 354.807 204.416 348.288 210.574 347.611C216.708 346.934 222.716 350.821 223.667 357.164C226.696 377.497 229.725 397.855 232.755 418.188C233.631 424.105 229.375 430.623 223.217 431.3C217.083 431.977 211.075 428.091 210.124 421.748Z" fill="#D9FBFB"/>
<path d="M211.227 421.444C209.375 409.034 207.547 396.648 205.695 384.238C204.819 378.296 203.917 372.329 203.041 366.387C202.165 360.495 200.988 354.252 206.696 350.341C211.453 347.057 218.537 348.962 221.391 353.926C222.768 356.308 222.868 359.292 223.269 361.974C223.72 364.958 224.145 367.941 224.596 370.9C226.448 383.31 228.276 395.721 230.128 408.131C230.354 409.585 232.557 408.959 232.331 407.529C230.053 392.136 227.75 376.767 225.472 361.373C224.721 356.408 224.07 351.845 219.689 348.812C216.159 346.355 211.252 345.628 207.272 347.408C195.957 352.447 200.838 366.813 202.19 375.964C204.468 391.333 206.771 406.727 209.049 422.096C209.225 423.5 211.453 422.873 211.227 421.444Z" fill="#4F3422"/>
<path d="M204.643 460.333C199.461 427.163 194.279 393.968 189.097 360.799C188.17 354.882 192.376 348.338 198.56 347.611C204.693 346.884 210.726 350.745 211.728 357.088C216.91 390.258 222.092 423.452 227.274 456.622C228.2 462.539 223.994 469.083 217.811 469.81C211.677 470.537 205.644 466.676 204.643 460.333Z" fill="#D9FBFB"/>
<path d="M199.935 426.937C197.882 413.122 195.829 399.308 193.776 385.468C192.825 379.05 191.873 372.631 190.922 366.213C189.971 359.795 189.045 351.672 196.805 349.039C202.638 347.058 209.072 350.945 210.374 356.836C211.776 363.305 212.377 370.049 213.328 376.593C215.381 390.407 217.433 404.222 219.486 418.036C219.712 419.49 221.915 418.863 221.689 417.434C219.787 404.598 217.859 391.761 215.956 378.949C215.005 372.531 214.054 366.113 213.103 359.694C212.477 355.558 211.676 351.972 208.296 349.215C202.388 344.376 193.426 345.679 189.495 352.323C187.142 356.31 187.693 360.221 188.344 364.583C189.295 371.002 190.246 377.42 191.198 383.838C193.376 398.405 195.528 412.947 197.706 427.513C197.932 429.017 200.16 428.391 199.935 426.937Z" fill="#4F3422"/>
<path d="M203.366 369.097C207.046 393.818 210.726 418.538 214.407 443.259C215.283 449.176 211.027 455.694 204.868 456.371C198.735 457.048 192.727 453.162 191.776 446.819C188.095 422.099 184.415 397.378 180.735 372.657C179.859 366.74 184.115 360.222 190.273 359.545C196.407 358.868 202.415 362.754 203.366 369.097Z" fill="#D9FBFB"/>
<path d="M194.804 459.505C191.249 435.662 187.695 411.794 184.165 387.951C183.364 382.511 181.786 376.644 181.786 371.153C181.761 363.807 188.871 358.743 195.756 361.375C201.814 363.707 202.29 369.423 203.116 375.014C203.917 380.43 204.718 385.845 205.544 391.261C207.296 403.094 209.074 414.928 210.826 426.787C211.052 428.241 213.255 427.614 213.029 426.185C211.202 413.975 209.399 401.766 207.572 389.531C206.696 383.589 205.794 377.647 204.918 371.705C204.142 366.565 202.64 362.127 197.683 359.695C187.544 354.731 178.357 363.682 179.784 373.936C181.661 387.324 183.764 400.662 185.742 414.026C188.02 429.394 190.323 444.738 192.601 460.107C192.802 461.586 195.03 460.96 194.804 459.505Z" fill="#4F3422"/>
<path d="M5.64479 473.246C35.0351 457.551 64.4503 441.856 93.8406 426.161C97.9963 423.93 102.152 421.724 106.308 419.492C107.609 418.79 106.458 416.81 105.156 417.512C75.7658 433.206 46.3506 448.901 16.9603 464.596C12.8046 466.827 8.64891 469.034 4.49321 471.265C3.1664 471.967 4.34301 473.948 5.64479 473.246Z" fill="#4F3422"/>
<path d="M365.288 464.093C339.979 450.931 314.694 437.743 289.384 424.58C285.854 422.75 282.325 420.895 278.77 419.065C277.468 418.388 276.291 420.368 277.618 421.045C302.928 434.208 328.213 447.396 353.522 460.558C357.052 462.388 360.582 464.244 364.137 466.074C365.439 466.751 366.59 464.77 365.288 464.093Z" fill="#4F3422"/>
<path d="M22.8198 450.731C28.2272 452.211 33.6346 453.665 39.0671 455.144C40.494 455.52 41.0949 453.314 39.6679 452.938C34.2605 451.458 28.8531 450.004 23.4207 448.525C21.9937 448.124 21.3929 450.33 22.8198 450.731Z" fill="#4F3422"/>
<path d="M342.282 453.138C346.612 451.784 350.843 450.155 354.974 448.249C356.301 447.648 355.149 445.667 353.822 446.269C349.867 448.074 345.811 449.628 341.681 450.932C340.279 451.358 340.88 453.59 342.282 453.138Z" fill="#4F3422"/>
<path d="M292.965 239.876C297.17 249.027 308.736 248.526 315.771 243.211C323.306 237.495 330.892 225.235 327.587 215.482C325.134 208.236 314.069 203.848 309.888 212.222C308.085 215.808 309.512 220.095 312.291 222.778C315.846 226.187 321.278 226.764 325.96 226.914C337.05 227.29 350.018 222.301 351.72 209.891C352.121 207.007 347.715 205.754 347.314 208.662C346.062 217.663 337.551 221.925 329.214 222.301C325.259 222.477 320.352 222.502 316.822 220.421C314.895 219.293 313.292 217.212 313.843 214.93C314.394 212.573 317.123 211.796 319.226 212.473C323.532 213.877 324.157 219.293 323.431 223.053C322.555 227.566 320.027 232.029 317.123 235.539C312.391 241.23 301.251 246.947 296.945 237.52C295.668 234.887 291.738 237.219 292.965 239.876Z" fill="#4F3422"/>
<path d="M46.0487 178.753C45.2226 189.584 54.2349 198.96 65.1499 197.882C75.8145 196.804 83.0744 186.299 80.3457 175.895C79.3443 172.109 76.165 167.646 71.809 170.103C67.4531 172.56 66.5268 179.104 67.1276 183.541C68.8049 195.827 80.2205 202.119 91.0354 205.329C93.8642 206.181 95.0659 201.743 92.262 200.916C85.5028 198.91 78.2679 195.952 74.2624 189.809C72.2596 186.726 71.058 182.789 71.6588 179.079C71.784 178.352 71.9592 177.599 72.2346 176.923C72.535 176.095 73.8118 174.115 75.0134 174.691C76.1149 175.218 76.3402 179.48 76.3402 180.282C76.3903 187.703 70.3821 193.595 62.9719 193.395C55.2363 193.194 50.0792 186.174 50.63 178.753C50.8553 175.819 46.274 175.819 46.0487 178.753Z" fill="#4F3422"/>
<path d="M50.0311 353.3C55.8641 358.816 65.1268 359.844 71.9612 355.482C75.6913 353.1 77.9444 349.339 79.4965 345.303C81.0486 341.166 82.9512 335.6 80.4728 331.413C78.7455 328.48 74.6899 326.574 71.5356 328.379C68.3312 330.209 67.8806 334.346 68.8819 337.555C71.3353 345.503 80.5479 349.464 88.2835 349.063C99.2736 348.487 107.585 340.163 113.518 331.639C115.195 329.207 111.24 326.925 109.563 329.332C105.232 335.55 99.6241 341.667 92.1138 343.823C86.0054 345.578 77.9944 344.049 74.3394 338.408C73.6635 337.355 72.587 335.449 72.9625 334.121C74.064 330.184 76.3672 333.494 76.7928 334.873C77.1933 336.177 76.9931 337.38 76.7177 338.684C75.9666 342.444 74.4646 346.782 71.811 349.64C66.9793 354.83 58.2924 354.805 53.2605 350.016C51.1326 348.01 47.8782 351.27 50.0311 353.3Z" fill="#4F3422"/>
<path d="M241.166 173.589C237.011 166.97 237.586 157.769 243.57 152.378C248.727 147.74 261.069 145.584 265.224 152.83C266.626 155.287 265.6 158.621 262.245 157.894C259.642 157.318 258.465 154.635 258.265 152.203C257.939 148.392 259.391 144.431 261.319 141.222C265.224 134.753 272.109 130.315 279.619 129.588C282.523 129.313 282.548 124.724 279.619 125C270.431 125.853 262.145 130.942 257.364 138.89C253.358 145.534 250.629 158.596 260.167 162.031C263.522 163.234 267.552 162.457 269.505 159.273C271.959 155.312 270.106 150.473 266.801 147.665C259.767 141.748 248.576 142.701 241.592 148.091C233.155 154.61 231.653 167.045 237.211 175.896C238.788 178.403 242.743 176.096 241.166 173.589Z" fill="#4F3422"/>
<path d="M127.916 54.5502C121.487 52.1727 117.649 45.0723 119.441 38.9357C121.232 32.7991 128.428 28.3975 135.272 29.2971C138.791 29.7469 141.989 31.3855 145.091 32.9919C149.025 35.016 152.959 37.0401 156.893 39.0963C147.074 35.9156 142.309 24.7991 144.484 15.4497C146.019 8.73479 151.072 2.27694 158.301 0.50987C164.218 -0.935918 170.486 0.895413 175.924 3.4657C192.747 11.4015 204.549 26.02 214.56 40.7349C211.425 36.7509 214.912 30.6786 219.965 29.0722C225.018 27.4979 230.584 29.1365 235.349 31.3533C246 36.269 254.891 45.6184 261 55L127.916 54.5502Z" fill="white"/>
</svg>
