<svg width="48" height="48" viewBox="0 0 48 48" fill="none" xmlns="http://www.w3.org/2000/svg">
<rect width="48" height="48" rx="24" fill="#9BB168"/>
<path fill-rule="evenodd" clip-rule="evenodd" d="M31.7039 16.4567C32.4319 16.1552 33.2121 16 34 16C34.7879 16 35.5681 16.1552 36.2961 16.4567C37.0241 16.7583 37.6855 17.2002 38.2426 17.7574C38.7998 18.3145 39.2417 18.9759 39.5433 19.7039C39.8448 20.4319 40 21.2121 40 22C40 23.1046 39.1046 24 38 24C36.8954 24 36 23.1046 36 22C36 21.7374 35.9483 21.4773 35.8478 21.2346C35.7472 20.992 35.5999 20.7715 35.4142 20.5858C35.2285 20.4001 35.008 20.2528 34.7654 20.1522C34.5227 20.0517 34.2626 20 34 20C33.7374 20 33.4773 20.0517 33.2346 20.1522C32.992 20.2528 32.7715 20.4001 32.5858 20.5858C32.4001 20.7715 32.2527 20.992 32.1522 21.2346C32.0517 21.4773 32 21.7374 32 22C32 23.1046 31.1046 24 30 24C28.8954 24 28 23.1046 28 22C28 21.2121 28.1552 20.4319 28.4567 19.7039C28.7583 18.9759 29.2002 18.3145 29.7574 17.7574C30.3145 17.2002 30.9759 16.7583 31.7039 16.4567Z" fill="#3D4A26"/>
<path fill-rule="evenodd" clip-rule="evenodd" d="M34.1765 28.6546C35.2434 28.9405 35.8766 30.0371 35.5907 31.1041C34.907 33.6557 33.4005 35.9104 31.3047 37.5185C29.209 39.1266 26.6412 39.9982 23.9996 39.9982C21.358 39.9982 18.7902 39.1266 16.6945 37.5185C14.5987 35.9104 13.0922 33.6557 12.4085 31.1041C12.1226 30.0371 12.7558 28.9405 13.8227 28.6546C14.8896 28.3687 15.9863 29.0019 16.2722 30.0688C16.728 31.7699 17.7324 33.273 19.1295 34.3451C20.5267 35.4171 22.2385 35.9982 23.9996 35.9982C25.7607 35.9982 27.4725 35.4171 28.8697 34.3451C30.2668 33.273 31.2712 31.7699 31.727 30.0688C32.0129 29.0019 33.1096 28.3687 34.1765 28.6546Z" fill="#3D4A26"/>
<path fill-rule="evenodd" clip-rule="evenodd" d="M11.7039 16.4567C12.4319 16.1552 13.2121 16 14 16C14.7879 16 15.5681 16.1552 16.2961 16.4567C17.0241 16.7583 17.6855 17.2002 18.2426 17.7574C18.7998 18.3145 19.2417 18.9759 19.5433 19.7039C19.8448 20.4319 20 21.2121 20 22C20 23.1046 19.1046 24 18 24C16.8954 24 16 23.1046 16 22C16 21.7374 15.9483 21.4773 15.8478 21.2346C15.7472 20.992 15.5999 20.7715 15.4142 20.5858C15.2285 20.4001 15.008 20.2528 14.7654 20.1522C14.5227 20.0517 14.2626 20 14 20C13.7374 20 13.4773 20.0517 13.2346 20.1522C12.992 20.2528 12.7715 20.4001 12.5858 20.5858C12.4001 20.7715 12.2527 20.992 12.1522 21.2346C12.0517 21.4773 12 21.7374 12 22C12 23.1046 11.1046 24 10 24C8.89543 24 8 23.1046 8 22C8 21.2121 8.15519 20.4319 8.45672 19.7039C8.75825 18.9759 9.20021 18.3145 9.75736 17.7574C10.3145 17.2002 10.9759 16.7583 11.7039 16.4567Z" fill="#3D4A26"/>
</svg>
