<svg width="48" height="48" viewBox="0 0 48 48" fill="none" xmlns="http://www.w3.org/2000/svg">
<rect width="48" height="48" rx="24" fill="#FFCE5C"/>
<path fill-rule="evenodd" clip-rule="evenodd" d="M36 14C37.1046 14 38 14.8954 38 16L38 22C38 23.1046 37.1046 24 36 24C34.8954 24 34 23.1046 34 22L34 16C34 14.8954 34.8954 14 36 14Z" fill="#705600"/>
<path fill-rule="evenodd" clip-rule="evenodd" d="M12 14C13.1046 14 14 14.8954 14 16L14 22C14 23.1046 13.1046 24 12 24C10.8954 24 10 23.1046 10 22L10 16C10 14.8954 10.8954 14 12 14Z" fill="#705600"/>
<path fill-rule="evenodd" clip-rule="evenodd" d="M34.1765 28.6546C35.2434 28.9405 35.8766 30.0371 35.5907 31.1041C34.907 33.6557 33.4005 35.9104 31.3047 37.5185C29.209 39.1266 26.6412 39.9982 23.9996 39.9982C21.358 39.9982 18.7902 39.1266 16.6945 37.5185C14.5987 35.9104 13.0922 33.6557 12.4085 31.1041C12.1226 30.0371 12.7558 28.9405 13.8227 28.6546C14.8896 28.3687 15.9863 29.0019 16.2722 30.0688C16.728 31.7699 17.7324 33.273 19.1295 34.3451C20.5267 35.4171 22.2385 35.9982 23.9996 35.9982C25.7607 35.9982 27.4725 35.4171 28.8697 34.3451C30.2668 33.273 31.2712 31.7699 31.727 30.0688C32.0129 29.0019 33.1096 28.3687 34.1765 28.6546Z" fill="#705600"/>
</svg>
